<?xml version="1.0" standalone="no"?><!DOCTYPE svg PUBLIC "-//W3C//DTD SVG 1.1//EN" "http://www.w3.org/Graphics/SVG/1.1/DTD/svg11.dtd"><svg t="1512281558857" class="icon" style="" viewBox="0 0 1024 1024" version="1.1" xmlns="http://www.w3.org/2000/svg" p-id="1124" xmlns:xlink="http://www.w3.org/1999/xlink" width="200" height="200"><defs><style type="text/css"></style></defs><path d="M864.714715 375.541095c0 6.336312-0.170892 12.356422-0.511653 18.059308-0.340761 5.702885-0.852414 11.722996-1.534959 18.059308-6.139837 52.594869-18.590404 103.131869-37.350676 151.60793-18.760273 48.477085-42.467207 95.052866-71.119781 139.726322-28.652574 44.674479-61.739133 87.606267-99.260701 128.795365-37.521568 41.188074-78.112032 80.794118-121.773438 118.814036-6.139837 6.969739-13.985526 10.456143-23.536043 10.456143-10.233062 0-18.419512-3.486404-24.559349-10.456143-43.661406-38.019918-84.422761-77.942163-122.285091-119.764688-37.862329-41.823548-71.290673-85.547375-100.284007-131.172505-28.993335-45.624107-52.871161-92.992951-71.631434-142.102439-18.760273-49.111534-30.870078-100.279914-36.32737-153.508209 0-5.070482-0.170892-9.822716-0.511653-14.258749-0.340761-4.435009-0.511653-9.188266-0.511653-14.257725 0-44.357254 9.380648-86.179778 28.14092-125.468596s44.173059-73.507154 76.236312-102.656031c32.063253-29.148877 69.755714-52.278667 113.075335-69.387323 43.319621-17.10968 89.539292-25.664519 138.65799-25.664519s95.167476 8.55484 138.146337 25.664519c42.97886 17.108656 80.500429 40.238446 112.563682 69.387323s57.476039 63.368236 76.236312 102.656031S864.714715 331.183841 864.714715 375.541095zM509.627465 523.822257c22.512736 0 43.661406-3.962242 63.444984-11.881608 19.783579-7.921413 37.009915-18.536168 51.676963-31.843242 14.667048-13.307074 26.2652-28.991288 34.792411-47.050596 8.527211-18.060331 12.791327-37.228903 12.791327-57.506738 0-20.277836-4.264117-39.446407-12.791327-57.506738s-20.125363-33.743522-34.792411-47.050596-31.893384-23.920806-51.676963-31.842219c-19.783579-7.921413-40.932248-11.881608-63.444984-11.881608s-43.661406 3.960195-63.444984 11.881608c-19.783579 7.92039-37.179784 18.534122-52.188616 31.842219s-26.776853 28.991288-35.304064 47.050596-12.791327 37.227879-12.791327 57.506738c0 20.277836 4.264117 39.446407 12.791327 57.506738 8.527211 18.059308 20.295232 33.743522 35.304064 47.050596 15.008832 13.307074 32.405037 23.921829 52.188616 31.843242C465.966059 519.860015 487.114728 523.822257 509.627465 523.822257z" p-id="1125" fill="#1afa29"></path></svg>